<svg width="150" height="26" viewBox="0 0 150 26" fill="none" xmlns="http://www.w3.org/2000/svg">
<path d="M11.2341 0.00255162L20.2592 0.00207434L22.9149 8.28028e-06C25.2098 -0.00126409 27.0922 0.142751 29.1213 1.36735C32.0179 3.11551 33.1049 7.20853 31.28 10.0956C30.1552 11.8756 28.4368 12.8393 26.4291 13.2896C28.7182 14.5989 30.0983 16.9403 31.3191 19.1765C32.54 21.4124 34.1594 23.9839 36.6588 24.8849C37.0902 25.0402 37.5446 25.1235 37.9981 25.2033L38 25.7228L31.2945 25.7209C31.1221 25.5579 30.9423 25.3615 30.7833 25.1842C29.9311 24.2005 29.0742 23.0569 28.4461 21.9131C26.4376 18.2561 23.8657 13.8275 19.2447 13.393C18.621 13.3366 17.9715 13.3962 17.3496 13.3694C15.249 13.279 13.1288 13.6008 11.4731 15.0238C9.24494 16.9387 8.8127 20.9997 10.8547 23.2131C11.7668 24.2018 12.9821 24.9088 14.3066 25.1767C14.9585 25.304 15.7511 25.2576 16.4209 25.2563L19.196 25.2528C19.7874 25.2526 20.461 25.2377 21.0437 25.2777C19.858 24.3126 18.8678 23.1288 18.127 21.7899C17.5622 20.7775 17.19 19.8861 16.3806 19.0084C15.4224 17.9696 14.4848 17.3427 13.0605 17.265L13.0601 16.8218L18.131 16.8194C18.8141 17.5147 19.7276 18.7545 20.219 19.595C21.127 21.1486 21.9279 22.7017 23.2244 23.9911C23.8824 24.6455 24.8118 25.2769 25.7478 25.4254C26.0803 25.4784 26.4881 25.4662 26.8293 25.4644C26.8348 25.6494 26.8401 25.8042 26.8293 25.9892C25.847 26.0115 24.7965 25.9924 23.8083 25.9924L18.0638 25.9921L15.058 25.9919C14.1454 25.9919 13.2806 26.0237 12.3765 25.8763C11.0259 25.656 9.73945 25.2488 8.5982 24.4767C7.18279 23.5192 6.33991 22.1936 6.02634 20.5178C5.71113 18.8332 5.8915 17.2226 6.87961 15.7837C7.76973 14.4878 9.1373 13.6552 10.5924 13.1372C10.9195 13.0208 11.3297 12.8859 11.6674 12.8226C10.3715 12.0655 9.45008 11.0138 8.56586 9.81843C6.14525 6.54611 4.76356 1.31391 0 0.924411C0.00357053 0.747737 0.00642692 0.584476 0.000793419 0.407855C2.24454 0.369048 4.62897 0.39529 6.88041 0.408862C7.74255 1.36825 8.8548 2.89565 9.48414 3.99005C11.4063 7.33243 13.5608 11.3129 17.4976 12.531C18.0209 12.6927 19.2396 12.7587 19.8466 12.7817C20.6938 12.8165 21.542 12.7958 22.3865 12.7205C24.0445 12.5742 25.2577 12.319 26.5394 11.1211C27.2834 10.4088 28.1797 9.23385 28.4064 8.20957C28.8015 6.42364 28.3736 4.09407 27.0877 2.75636C26.0165 1.6068 24.177 0.922475 22.5991 0.844755C20.8035 0.756352 18.9045 0.862992 17.0854 0.805496C17.6055 1.18861 18.0858 1.60696 18.4946 2.11066C20.369 4.42056 21.4851 8.55083 24.9604 8.84896L24.9657 9.18805C24.3667 9.21996 23.6285 9.20048 23.0226 9.19932C21.9588 9.19465 20.8951 9.19616 19.8316 9.20385C19.0021 8.06505 18.0902 7.05614 17.3995 5.79843C16.3216 3.83575 15.0366 1.58413 12.8059 0.803536C12.2753 0.617876 11.787 0.607987 11.2325 0.6192L11.2341 0.00255162Z" fill="#FF6900"/>
<path d="M136.909 16.2873C139.968 19.9379 143.224 22.1744 145 23.0953H140.1C133.686 19.5104 130.397 10.9921 130.397 10.9921V23.0953H127.503V2.60541H137.172C140.856 2.60541 143.882 5.46676 143.882 8.65699C143.882 10.7619 142.632 12.5379 140.922 13.5904L136.909 16.2873ZM131.022 5.10498C132.042 8.68988 133.588 11.6828 135.331 14.1824C136.876 13.1299 139.113 11.6499 139.212 11.5841C140.231 10.8935 140.955 9.80811 140.955 8.65699C140.955 6.81521 139.113 5.10498 137.172 5.10498H131.022Z" fill="#364153"/>
<path d="M113.885 2.83563H116.812V23.0624H113.885V2.83563Z" fill="#364153"/>
<path d="M108.288 8.52544H111.248V23.0295H108.288V15.2348C108.288 15.2348 106.446 24.0491 101.151 23.2597C98.7498 22.9308 97.6973 20.4971 97.6973 16.3201C97.6973 8.52544 97.6973 8.52544 97.6973 8.52544H100.624V16.1228C100.624 16.1228 100.493 20.3655 102.104 20.5299C105.755 20.9246 108.288 8.52544 108.288 8.52544Z" fill="#364153"/>
<path d="M88.7749 20.9246C91.9322 21.2206 92.886 19.8722 92.5571 18.7539C91.8993 16.3859 83.0851 17.537 82.6246 12.505C82.3944 9.90678 85.0255 7.99921 89.334 8.29522C93.8727 8.55833 95.6158 11.321 95.6158 11.321L93.774 12.7023C93.774 12.7023 92.4913 10.7948 89.3669 10.5317C87.4922 10.3672 85.6504 10.8935 85.782 12.1761C86.0122 14.7744 95.3198 13.5904 95.7145 18.7539C95.9776 22.0428 92.6558 23.5228 88.9064 23.2926C84.1375 22.9966 82.3615 20.0695 82.3615 20.0695L84.3349 18.7868C84.3349 18.7868 85.4531 20.6286 88.7749 20.9246Z" fill="#364153"/>
<path d="M78.5338 6.38765C79.5534 6.38765 80.3756 5.59831 80.3756 4.61164C80.3756 3.59208 79.5534 2.80274 78.5338 2.80274C77.5142 2.80274 76.692 3.59208 76.692 4.61164C76.692 5.59831 77.5142 6.38765 78.5338 6.38765ZM77.1196 8.55833H80.0796V23.0624H77.1196V8.55833Z" fill="#364153"/>
<path d="M66.3974 20.8259C68.7654 20.6286 70.1139 17.6686 71.857 17.2739C75.8695 16.3201 74.4881 23.0624 74.4881 23.0624H71.6926C71.6926 23.0624 72.5148 20.3984 71.5281 20.2011C70.5414 20.0037 69.5877 22.7006 66.3645 23.3255C64.6872 23.6544 60.9049 22.898 60.9707 19.1157C61.0365 15.9255 63.9636 15.0375 66.6934 14.6099C68.7654 14.281 70.7059 14.0179 71.1663 12.6037C71.4952 11.6499 70.8046 10.2028 67.6801 10.4659C65.7725 10.6303 64.3254 11.2881 63.273 13.0312L61.3983 11.6828C62.4836 9.80811 64.7201 8.36099 67.6801 8.22943C69.9494 8.09788 73.8632 8.6241 74.1263 11.9459C74.6197 17.833 64.753 15.0375 64.161 18.7868C64.0623 19.5433 64.4241 20.9575 66.3974 20.8259Z" fill="#364153"/>
<path d="M52.4063 16.2873C55.465 19.9379 58.721 22.1744 60.497 23.0953H55.5965C49.1831 19.5104 45.8942 10.9921 45.8942 10.9921V23.0953H43V2.60541H52.6694C56.353 2.60541 59.3788 5.46676 59.3788 8.65699C59.3788 10.7619 58.129 12.5379 56.4187 13.5904L52.4063 16.2873ZM46.5191 5.10498C47.5387 8.68988 49.0845 11.6828 50.8276 14.1824C52.3734 13.1299 54.6098 11.6499 54.7085 11.5841C55.7281 10.8935 56.4516 9.80811 56.4516 8.65699C56.4516 6.81521 54.6098 5.10498 52.6694 5.10498H46.5191Z" fill="#364153"/>
</svg>
