<svg width="150" height="150" viewBox="0 0 150 150" fill="none" xmlns="http://www.w3.org/2000/svg">
<rect width="150" height="150" fill="white"/>
<path d="M50.8848 33.0082L78.9103 33.0067L87.1568 33C94.2832 32.9959 100.128 33.4612 106.429 37.4176C115.424 43.0655 118.8 56.2891 113.133 65.6166C109.64 71.3672 104.304 74.4807 98.0693 75.9358C105.178 80.1655 109.463 87.7301 113.254 94.9547C117.045 102.178 122.074 110.486 129.835 113.397C131.175 113.899 132.586 114.168 133.994 114.426L134 116.104L113.178 116.098C112.642 115.572 112.084 114.937 111.59 114.364C108.944 111.186 106.283 107.492 104.332 103.796C98.0956 91.9813 90.1094 77.6734 75.7598 76.2698C73.8232 76.0873 71.8063 76.28 69.8751 76.1935C63.3523 75.9015 56.7685 76.9412 51.627 81.5383C44.708 87.725 43.3657 100.845 49.7067 107.996C52.539 111.19 56.3127 113.474 60.4257 114.34C62.4502 114.751 64.9112 114.601 66.9913 114.597L75.6087 114.586C77.4451 114.585 79.5369 114.537 81.3462 114.667C77.6643 111.548 74.5894 107.724 72.2892 103.398C70.5354 100.127 69.3796 97.2473 66.8662 94.4118C63.8906 91.0555 60.979 89.0301 56.5562 88.7792L56.555 87.3473L72.3016 87.3396C74.4227 89.586 77.2595 93.5913 78.7854 96.307C81.6049 101.326 84.0918 106.344 88.1177 110.51C90.1611 112.624 93.0471 114.664 95.9537 115.144C96.986 115.315 98.2525 115.275 99.3119 115.269C99.3292 115.867 99.3456 116.367 99.3119 116.965C96.2617 117.037 92.9995 116.975 89.9312 116.975L72.0929 116.975L62.759 116.974C59.9251 116.974 57.2397 117.076 54.4322 116.6C50.2382 115.889 46.2436 114.573 42.6997 112.079C38.3045 108.985 35.6871 104.702 34.7134 99.2881C33.7346 93.8457 34.2947 88.6422 37.363 83.9936C40.1271 79.8067 44.3737 77.1167 48.8922 75.4433C49.908 75.0674 51.1817 74.6315 52.2304 74.4268C48.2063 71.9809 45.345 68.583 42.5992 64.7211C35.0826 54.149 30.7921 37.245 16 35.9866C16.0111 35.4158 16.02 34.8883 16.0025 34.3177C22.9699 34.1923 30.3742 34.2771 37.3655 34.3209C40.0426 37.4205 43.4965 42.3552 45.4508 45.8909C51.4195 56.6894 58.11 69.5492 70.3346 73.4847C71.9595 74.0071 75.7442 74.2204 77.629 74.2949C80.2596 74.4071 82.8935 74.3403 85.5159 74.0971C90.6646 73.6243 94.4318 72.7998 98.4118 68.9298C100.722 66.6285 103.505 62.8325 104.209 59.5232C105.436 53.7533 104.107 46.227 100.114 41.9052C96.7881 38.1912 91.076 35.9803 86.1762 35.7292C80.6005 35.4436 74.7036 35.7881 69.0545 35.6024C70.6696 36.8401 72.1612 38.1917 73.4306 39.819C79.2511 47.2818 82.7169 60.6258 93.5087 61.589L93.5251 62.6845C91.6649 62.7876 89.3727 62.7246 87.4911 62.7209C84.1879 62.7058 80.8846 62.7107 77.5822 62.7355C75.0067 59.0563 72.1748 55.7968 70.03 51.7334C66.6829 45.3924 62.6927 38.118 55.7657 35.596C54.1181 34.9962 52.6017 34.9643 50.88 35.0005L50.8848 33.0082Z" fill="#FF6900"/>
</svg>
